# AST/ASF file generated using VICON BodyLanguage
# -----------------------------------------------
:version 1.10
:name VICON
:units
  mass 1.0
  length 0.45
  angle deg
:documentation
   .ast/.asf automatically generated from VICON data using
   VICON BodyBuilder and BodyLanguage model FoxedUp or BRILLIANT.MOD
:root
   order TX TY TZ RX RY RZ
   axis XYZ
   position 0 0 0  
   orientation 0 0 0 
:bonedata
  begin
     id 1 
     name lhipjoint
     direction 0.535335 -0.74333 0.401095 
     length 2.04549 
     axis 0 0 0  XYZ
  end
  begin
     id 2 
     name lfemur
     direction 0.34202 -0.939693 0  
     length 6.95643  
     axis 0 0 20  XYZ
    dof rx ry rz
    limits (-160.0 20.0)
           (-70.0 70.0)
           (-60.0 70.0)
  end
  begin
     id 3 
     name ltibia
     direction 0.34192 -0.939729 0   
     length 5.55969   
     axis 0 0 20   XYZ
    dof rx
    limits (-10.0 170.0)
  end
  begin
     id 4 
     name lfoot
     direction 0.216943 -0.596046 0.773088   
     length 2.27918   
     axis -90 7.62852e-016 20   XYZ
    dof rx rz
    limits (-45.0 90.0)
           (-70.0 20.0)
  end
  begin
     id 5 
     name ltoes
     direction 1.53519e-011 -4.21748e-011 1   
     length 1.05562   
     axis -90 7.62852e-016 20   XYZ
    dof rx
    limits (-90.0 20.0)
  end
  begin
     id 6 
     name rhipjoint
     direction -0.576368 -0.719173 0.38806   
     length 2.1142  
     axis 0 0 0  XYZ 
  end
  begin
     id 7 
     name rfemur
     direction -0.34202 -0.939693 0   
     length 7.07928   
     axis 0 0 -20   XYZ
    dof rx ry rz
    limits (-160.0 20.0)
           (-70.0 70.0)
           (-70.0 60.0)
  end
  begin
     id 8 
     name rtibia
     direction -0.34202 -0.939693 0   
     length 5.79974   
     axis 0 0 -20   XYZ
    dof rx
    limits (-10.0 170.0)
 end
 begin
     id 9 
     name rfoot
     direction -0.189288 -0.520065 0.832888   
     length 2.42173  
     axis -90 -7.62852e-016 -20   XYZ
    dof rx rz
    limits (-45.0 90.0)
           (-20.0 70.0)
  end
  begin
     id 10 
     name rtoes
     direction -1.53574e-011 -4.21658e-011 1   
     length 1.14469   
     axis -90 -7.62852e-016 -20   XYZ
    dof rx
    limits (-90.0 20.0)
  end
  begin
     id 11 
     name lowerback
     direction -0.00135702 0.993803 0.111144   
     length 1.91308   
     axis 0 0 0   XYZ
    dof rx ry rz
    limits (-20.0 45.0)
           (-30.0 30.0)
           (-30.0 30.0)
  end
  begin
     id 12 
     name upperback
     direction -0.0056745 0.999813 0.0184631   
     length 1.9212   
     axis 0 0 0   XYZ
    dof rx ry rz
    limits (-20.0 45.0)
           (-30.0 30.0)
           (-30.0 30.0)
  end
  begin
     id 13 
     name thorax
     direction -0.00733434 0.999426 -0.0330788   
     length 1.94196   
     axis 0 0 0   XYZ
    dof rx ry rz
    limits (-20.0 45.0)
           (-30.0 30.0)
           (-30.0 30.0)
  end
  begin
     id 14 
     name lowerneck
     direction 0.0563074 0.996944 -0.0541571   
     length 2.34257   
     axis 0 0 0   XYZ
    dof rx ry rz
    limits (-20.0 45.0)
           (-30.0 30.0)
           (-30.0 30.0)
  end
  begin
     id 15 
     name upperneck
     direction -0.0544519 0.976166 -0.210085   
     length 2.32506   
     axis 0 0 0   XYZ
    dof rx ry rz
    limits (-20.0 45.0)
           (-30.0 30.0)
           (-30.0 30.0)
  end
  begin
     id 16
     name head
     direction -0.0226035 0.997615 -0.0652205  
     length 2.3648  
     axis 0 0 0   XYZ
    dof rx ry rz
    limits (-20.0 45.0)
           (-30.0 30.0)
           (-30.0 30.0)
  end
  begin
     id 17 
     name lclavicle
     direction 0.92109 0.381297 -0.0787716  
     length 4.0487  
     axis 0 0 0   XYZ
    dof ry rz
    limits (-20.0 10.0)
           (0.0 20.0)
  end
  begin
     id 18 
     name lhumerus
     direction 1 -4.48986e-011 3.56724e-027   
     length 4.94991   
     axis 180 -30 -90   XYZ
    dof rx ry rz
    limits (-60.0 90.0)
           (-90.0 90.0)
           (-90.0 90.0)
  end
  begin
     id 19
     name lradius
     direction 1 -4.48981e-011 8.62147e-027   
     length 2.7606   
     axis 180 -30 -90   XYZ
    dof rx
    limits (-10.0 170.0)
  end
  begin
     id 20
     name lwrist
     direction 1 -4.48989e-011 1.59799e-026   
     length 1.3803   
     axis -1.17785e-014 90 90   XYZ
    dof ry
    limits (-180.0 0.0)
 end
  begin
     id 21 
     name lhand
     direction 1 -4.48896e-011 3.19599e-026   
     length 0.843936   
     axis -2.03931e-014 90 90   XYZ
    dof rx rz
    limits (-90.0 90.0)
           (-45.0 45.0)
  end
  begin
     id 22 
     name lfingers
     direction 1 -4.48887e-011 6.39197e-026   
     length 0.680403   
     axis -4.07862e-014 90 90   XYZ
    dof rx
    limits (0.0 90.0)
  end
  begin
     id 23
     name lthumb
     direction 0.707107 -6.348e-011 0.707107   
     length 0.976926   
     axis -90 45 2.85299e-015   XYZ
    dof rx rz
    limits (-45.0 45.0)
           (-45.0 45.0)
  end
  begin
     id 24 
     name rclavicle
     direction -0.951104 0.307692 -0.026953   
     length 4.21801  
     axis 0 0 0   XYZ 
    dof ry rz
    limits (-10.0 20.0)
           (-20.0 0.0)
  end
  begin
     id 25 
     name rhumerus
     direction -1 -4.4896e-011 -1.8171e-018  
     length 4.32982   
     axis 180 30 90   XYZ
    dof rx ry rz
    limits (-90.0 60.0)
           (-90.0 90.0)
           (-90.0 90.0)
  end
  begin
     id 26 
     name rradius
     direction -1 -4.48959e-011 8.25165e-027   
     length 3.20057   
     axis 180 30 90   XYZ
    dof rx
    limits (-10.0 170.0)
  end
  begin
     id 27 
     name rwrist
     direction -1 -4.48997e-011 1.59799e-026   
     length 1.60029   
     axis -1.17785e-014 -90 -90   XYZ
    dof ry
    limits (-180.0 0.0)
  end
  begin
     id 28
     name rhand
     direction -1 -4.49023e-011 3.19599e-026   
     length 0.960433   
     axis -2.03931e-014 -90 -90   XYZ
    dof rx rz
    limits (-90.0 90.0)
           (-45.0 45.0)
  end
  begin
     id 29
     name rfingers
     direction -1 -4.48802e-011 6.39197e-026   
     length 0.774326   
     axis -4.07862e-014 -90 -90   XYZ
    dof rx
    limits (0.0 90.0)
  end
  begin
     id 30
     name rthumb
     direction -0.707107 -6.34876e-011 0.707107   
     length 1.11178   
     axis -90 -45 -2.85299e-015   XYZ
    dof rx rz
    limits (-45.0 45.0)
           (-45.0 45.0)
  end
:hierarchy
  begin
    root lhipjoint rhipjoint lowerback
    lhipjoint lfemur
    lfemur ltibia
    ltibia lfoot
    lfoot ltoes
    rhipjoint rfemur
    rfemur rtibia
    rtibia rfoot
    rfoot rtoes
    lowerback upperback
    upperback thorax
    thorax lowerneck lclavicle rclavicle
    lowerneck upperneck
    upperneck head
    lclavicle lhumerus
    lhumerus lradius
    lradius lwrist
    lwrist lhand lthumb
    lhand lfingers
    rclavicle rhumerus
    rhumerus rradius
    rradius rwrist
    rwrist rhand rthumb
    rhand rfingers
end

#!OML:ASF C:\KaitlinTest1\Natural Motions\Nikki\Session 2\Nikki.ASF
:FULLY-SPECIFIED
:DEGREES
493
root -12.1493 16.5071 4.07695 66.9985 91.1882 60.4883
lowerback -9.70572 -1.86256 0.502187
upperback -4.74428 -2.33983 -0.482795
thorax 0.473991 -1.11124 -1.00998
lowerneck -6.69418 -11.3387 -10.0534
upperneck 5.74311 41.3689 5.34616
head 165.209 62.3169 -39.3382
rclavicle -7.65321e-015 -3.57812e-015
rhumerus -37.9484 -18.6495 -85.9408
rradius 18.0727
rwrist 16.4248
rhand -35.4245 0.912551
rfingers 7.12502
rthumb -8.55445 -28.8942
lclavicle -7.65321e-015 -3.57812e-015
lhumerus -37.17 13.8555 85.2067
lradius 21.262
lwrist -25.6904
lhand -35.3366 3.49848
lfingers 7.12502
lthumb -8.46962 33.3086
rfemur -6.56834 -20.3614 20.7633
rtibia 16.7579
rfoot -13.3099 9.49605
rtoes 2.54444e-014
lfemur -9.84668 16.2678 -17.1644
ltibia 20.0495
lfoot -8.63862 -18.6987
ltoes -1.74931e-014
494
root -12.1519 16.5063 4.07864 65.76 91.1753 59.2723
lowerback -9.69012 -1.85911 0.466403
upperback -4.73879 -2.3324 -0.490475
thorax 0.472499 -1.10718 -0.996709
lowerneck -6.69005 -11.3368 -10.0739
upperneck 5.74735 41.3895 5.35103
head 165.263 62.2987 -39.3062
rclavicle -1.64494e-014 -1.19271e-015
rhumerus -37.9781 -18.6218 -85.9853
rradius 18.0474
rwrist 16.6356
rhand -35.4336 0.829302
rfingers 7.12502
rthumb -8.56327 -28.977
lclavicle -1.64494e-014 -1.19271e-015
lhumerus -37.2271 14.1246 85.1472
lradius 21.1167
lwrist -26.0868
lhand -35.3776 3.41409
lfingers 7.12502
lthumb -8.50921 33.2226
rfemur -6.54012 -20.288 20.7383
rtibia 16.7376
rfoot -13.271 9.41864
rtoes -1.27222e-014
lfemur -9.83891 16.2831 -17.1793
ltibia 20.0605
lfoot -8.63467 -18.7226
ltoes -1.27222e-014
495
root -12.1539 16.5076 4.07895 65.354 91.1851 58.8865
lowerback -9.67783 -1.84993 0.485732
upperback -4.72943 -2.32228 -0.498191
thorax 0.474556 -1.10269 -1.01427
lowerneck -6.69449 -11.3549 -10.0678
upperneck 5.74763 41.3813 5.34526
head 165.205 62.3012 -39.3477
rclavicle 7.7526e-015 0
rhumerus -37.9857 -18.6448 -86.0366
rradius 18.0533
rwrist 16.664
rhand -35.3827 0.912087
rfingers 7.12502
rthumb -8.51415 -28.8963
lclavicle 7.7526e-015 0
lhumerus -37.2985 14.2903 85.103
lradius 21.0207
lwrist -26.5744
lhand -35.2668 3.25182
lfingers 7.12502
lthumb -8.40222 33.0647
rfemur -6.52551 -20.2963 20.7429
rtibia 16.7321
rfoot -13.2407 9.41024
rtoes -1.90833e-014
lfemur -9.83922 16.2818 -17.1725
ltibia 20.0743
lfoot -8.6399 -18.7349
ltoes -6.52014e-014
496
root -12.154 16.5084 4.0797 65.4194 91.1903 58.9894
lowerback -9.65019 -1.84382 0.482163
upperback -4.73567 -2.31408 -0.485374
thorax 0.453855 -1.09855 -0.997199
lowerneck -6.69598 -11.3559 -10.0842
upperneck 5.77387 41.4617 5.35631
head 165.195 62.2545 -39.3721
rclavicle -3.13583e-014 -1.19271e-014
rhumerus -38.0239 -18.5422 -86.1114
rradius 18.078
rwrist 16.5816
rhand -35.3041 0.778084
rfingers 7.12502
rthumb -8.43823 -29.0333
lclavicle -3.13583e-014 -1.19271e-014
lhumerus -37.3919 14.3951 85.1209
lradius 20.8397
lwrist -26.9528
lhand -35.2351 3.23114
lfingers 7.12502
lthumb -8.3717 33.0452
rfemur -6.4701 -20.3635 20.7372
rtibia 16.7089
rfoot -13.2903 9.4487
rtoes 2.54444e-014
lfemur -9.81031 16.2798 -17.1544
ltibia 20.0916
lfoot -8.64423 -18.7433
ltoes 7.95139e-015
497
root -12.1565 16.5075 4.08061 64.244 91.1987 57.8175
lowerback -9.67269 -1.83925 0.475114
upperback -4.72175 -2.30769 -0.489226
thorax 0.48085 -1.09524 -0.997647
lowerneck -6.71339 -11.3649 -10.0818
upperneck 5.78131 41.4998 5.36679
head 165.215 62.2254 -39.3741
rclavicle 3.6477e-014 6.75868e-015
rhumerus -38.0088 -18.4639 -86.2109
rradius 18.0622
rwrist 16.5138
rhand -35.2895 0.636454
rfingers 7.12502
rthumb -8.42419 -29.1755
lclavicle 3.6477e-014 6.75868e-015
lhumerus -37.4266 14.5016 85.1246
lradius 20.6706
lwrist -27.3562
lhand -35.1564 3.31826
lfingers 7.12502
lthumb -8.29569 33.1354
rfemur -6.45871 -20.3256 20.7395
rtibia 16.6814
rfoot -13.2219 9.39713
rtoes -5.80451e-014
lfemur -9.82478 16.2884 -17.1559
ltibia 20.112
lfoot -8.63883 -18.7724
ltoes -5.88403e-014
498
root -12.1571 16.5076 4.08132 63.9234 91.2357 57.5247
lowerback -9.66364 -1.83246 0.508035
upperback -4.7155 -2.30194 -0.482803
thorax 0.481406 -1.09294 -1.00872
lowerneck -6.72965 -11.3585 -10.1014
upperneck 5.7911 41.5568 5.37856
head 165.267 62.2143 -39.3633
rclavicle 1.70955e-014 7.95139e-015
rhumerus -38.0567 -18.4702 -86.2288
rradius 18.0675
rwrist 16.5761
rhand -35.2689 0.548145
rfingers 7.12502
rthumb -8.4043 -29.2646
lclavicle 1.70955e-014 7.95139e-015
lhumerus -37.4856 14.5481 85.1735
lradius 20.5022
lwrist -27.4128
lhand -35.1965 3.21001
lfingers 7.12502
lthumb -8.3344 33.0256
rfemur -6.42323 -20.3232 20.7608
rtibia 16.6755
rfoot -13.1952 9.37405
rtoes 1.51076e-014
lfemur -9.80977 16.3232 -17.1147
ltibia 20.1199
lfoot -8.63932 -18.8334
ltoes 2.70347e-014
499
root -12.1588 16.5072 4.0824 63.4038 91.2449 57.018
lowerback -9.64677 -1.82901 0.501565
upperback -4.73101 -2.29634 -0.47662
thorax 0.456755 -1.08991 -0.997303
lowerneck -6.67762 -11.3875 -10.0982
upperneck 5.77811 41.4302 5.34137
head 165.045 62.3567 -39.4953
rclavicle 2.47984e-014 3.97569e-016
rhumerus -38.1148 -18.5105 -86.2101
rradius 18.021
rwrist 16.6792
rhand -35.2304 0.591924
rfingers 7.12502
rthumb -8.36715 -29.2224
lclavicle 2.47984e-014 3.97569e-016
lhumerus -37.6004 14.8232 85.1019
lradius 20.3292
lwrist -27.6898
lhand -35.2564 3.03341
lfingers 7.12502
lthumb -8.39219 32.8467
rfemur -6.41484 -20.3307 20.7678
rtibia 16.6816
rfoot -13.2151 9.36009
rtoes -1.51076e-014
lfemur -9.80222 16.349 -17.1098
ltibia 20.1156
lfoot -8.63694 -18.8702
ltoes -6.36111e-014
500
root -12.1604 16.5067 4.08266 62.1717 91.2526 55.7888
lowerback -9.66444 -1.8339 0.496239
upperback -4.72396 -2.30251 -0.47422
thorax 0.473916 -1.09281 -0.993183
lowerneck -6.71727 -11.4155 -10.0719
upperneck 5.76332 41.3828 5.3148
head 164.808 62.4832 -39.6814
rclavicle 1.00883e-014 8.34896e-015
rhumerus -38.1384 -18.5924 -86.1564
rradius 17.9319
rwrist 16.8738
rhand -35.2144 0.741661
rfingers 7.12502
rthumb -8.35166 -29.0732
lclavicle 1.00883e-014 8.34896e-015
lhumerus -37.6617 14.9416 85.0929
lradius 20.2384
lwrist -28.1519
lhand -34.9648 3.31526
lfingers 7.12502
lthumb -8.11081 33.1396
rfemur -6.40326 -20.2535 20.7642
rtibia 16.6641
rfoot -13.1902 9.25675
rtoes -3.18055e-014
lfemur -9.81087 16.3709 -17.1154
ltibia 20.1211
lfoot -8.62591 -18.9245
ltoes -2.06736e-014
501
root -12.1622 16.5072 4.08377 60.7492 91.2616 54.379
lowerback -9.69176 -1.82922 0.482618
upperback -4.69622 -2.29582 -0.486696
thorax 0.517781 -1.08944 -0.999242
lowerneck -6.74556 -11.4374 -10.0517
upperneck 5.75082 41.3577 5.31107
head 164.764 62.5146 -39.7245
rclavicle -6.36111e-015 3.18055e-015
rhumerus -38.1878 -18.6415 -86.144
rradius 17.9606
rwrist 16.9803
rhand -35.1208 0.781907
rfingers 7.12502
rthumb -8.26132 -29.0366
lclavicle -6.36111e-015 3.18055e-015
lhumerus -37.6696 15.0039 85.1058
lradius 20.055
lwrist -28.2546
lhand -34.9037 3.17088
lfingers 7.12502
lthumb -8.0518 32.9975
rfemur -6.39143 -20.2068 20.7581
rtibia 16.6706
rfoot -13.1968 9.18564
rtoes 1.98785e-014
lfemur -9.8039 16.3684 -17.1219
ltibia 20.1076
lfoot -8.62905 -18.9528
ltoes -9.54166e-015
502
root -12.1629 16.5073 4.08421 60.3578 91.2851 54.0091
lowerback -9.72242 -1.82837 0.50516
upperback -4.67208 -2.29748 -0.483074
thorax 0.558749 -1.09061 -1.00982
lowerneck -6.75256 -11.3954 -10.0877
upperneck 5.75417 41.423 5.34179
head 165.008 62.5 -39.5824
rclavicle 0 -3.57812e-015
rhumerus -38.1965 -18.8377 -86.0426
rradius 17.8554
rwrist 17.3388
rhand -35.1208 0.711893
rfingers 7.12502
rthumb -8.26136 -29.1066
lclavicle 0 -3.57812e-015
lhumerus -37.7097 15.1444 85.0872
lradius 19.8732
lwrist -28.4396
lhand -34.8046 3.24962
lfingers 7.12502
lthumb -7.9562 33.0799
rfemur -6.36627 -20.1656 20.7691
rtibia 16.6745
rfoot -13.1849 9.1288
rtoes 5.56597e-015
lfemur -9.77468 16.3368 -17.0963
ltibia 20.0886
lfoot -8.61316 -18.9285
ltoes -3.18055e-015
503
root -12.1655 16.5074 4.0844 60.7417 91.2272 54.3928
lowerback -9.69578 -1.80232 0.462417
upperback -4.69632 -2.25823 -0.494604
thorax 0.521145 -1.07038 -0.992536
lowerneck -6.70541 -11.4075 -10.0936
upperneck 5.76076 41.3895 5.34251
head 164.99 62.5321 -39.5883
rclavicle -4.82053e-015 -4.37326e-015
rhumerus -38.279 -18.9759 -85.9441
rradius 17.7928
rwrist 17.5347
rhand -35.1328 0.742788
rfingers 7.12502
rthumb -8.2729 -29.0752
lclavicle -4.82053e-015 -4.37326e-015
lhumerus -37.7502 15.2489 85.0965
lradius 19.5885
lwrist -28.5885
lhand -34.8979 3.19681
lfingers 7.12502
lthumb -8.04621 33.0236
rfemur -6.37664 -20.0933 20.7235
rtibia 16.657
rfoot -13.1756 9.09399
rtoes 3.97569e-015
lfemur -9.77522 16.2794 -17.1528
ltibia 20.0848
lfoot -8.60986 -18.8289
ltoes -1.59028e-015
504
root -12.1666 16.5075 4.08548 59.481 91.2448 53.1629
lowerback -9.70693 -1.80275 0.470003
upperback -4.67264 -2.26004 -0.510654
thorax 0.550777 -1.07171 -1.01435
lowerneck -6.70747 -11.4199 -10.0631
upperneck 5.75751 41.3694 5.35279
head 164.99 62.5547 -39.5964
rclavicle 1.85367e-014 8.74653e-015
rhumerus -38.4527 -19.7277 -85.3929
rradius 17.2528
rwrist 19.6172
rhand -35.7641 1.60172
rfingers 7.12502
rthumb -8.88217 -28.1913
lclavicle 1.85367e-014 8.74653e-015
lhumerus -37.7932 15.2781 85.0899
lradius 19.4167
lwrist -28.738
lhand -34.7487 3.2439
lfingers 7.12502
lthumb -7.90219 33.0762
rfemur -6.33679 -20.0757 20.7171
rtibia 16.6434
rfoot -13.1477 9.05187
rtoes 1.35174e-014
lfemur -9.74842 16.2367 -17.139
ltibia 20.0821
lfoot -8.5917 -18.8245
ltoes -1.59028e-014
505
root -12.168 16.5076 4.0862 59.7852 91.2915 53.4816
lowerback -9.70521 -1.80032 0.501967
upperback -4.68068 -2.25952 -0.492422
thorax 0.540966 -1.07167 -1.01319
lowerneck -6.67309 -11.4238 -10.0668
upperneck 5.77699 41.3916 5.36392
head 164.998 62.5291 -39.5887
rclavicle 1.98785e-014 5.96354e-015
rhumerus -38.4932 -19.7681 -85.3549
rradius 17.1633
rwrist 19.6496
rhand -35.8287 1.50195
rfingers 7.12502
rthumb -8.94452 -28.2884
lclavicle 1.98785e-014 5.96354e-015
lhumerus -37.9739 15.4015 85.0263
lradius 19.3924
lwrist -29.1568
lhand -34.6931 3.32353
lfingers 7.12502
lthumb -7.84852 33.1579
rfemur -6.30577 -20.024 20.7624
rtibia 16.6145
rfoot -13.1072 8.98476
rtoes -4.77083e-015
lfemur -9.75133 16.2307 -17.0908
ltibia 20.0996
lfoot -8.58469 -18.8213
ltoes -5.88403e-014
506
root -12.1693 16.5065 4.08668 58.7766 91.2729 52.5095
lowerback -9.67423 -1.80178 0.475103
upperback -4.67765 -2.25934 -0.50436
thorax 0.527779 -1.07154 -1.00946
lowerneck -6.65301 -11.4277 -10.0489
upperneck 5.77464 41.3564 5.36898
head 164.99 62.5746 -39.5947
rclavicle 3.97569e-014 8.74653e-015
rhumerus -38.548 -20.0253 -85.1845
rradius 17.0393
rwrist 19.9781
rhand -35.834 1.60326
rfingers 7.12502
rthumb -8.94964 -28.1869
lclavicle 3.97569e-014 8.74653e-015
lhumerus -38.0617 15.6095 84.9135
lradius 19.1981
lwrist -29.4343
lhand -34.5637 3.33872
lfingers 7.12502
lthumb -7.72368 33.1777
rfemur -6.25008 -20.0408 20.7207
rtibia 16.5845
rfoot -13.1248 8.98832
rtoes -2.46493e-014
lfemur -9.7202 16.1761 -17.1109
ltibia 20.1216
lfoot -8.62316 -18.7828
ltoes -2.38542e-014
